PathFileType	4	(X/Y/Z)	32_2_101_p1_0-288_filt_butterworth.trc
DataRate	CameraRate	NumFrames	NumMarkers	Units	OrigDataRate	OrigDataStartFrame	OrigNumFrames
60.0	60.0	6	27	m	60.0	36	288
Frame#	Time	RHip			RKnee			RAnkle			RBigToe			RSmallToe			RHeel			LHip			LKnee			LAnkle			LBigToe			LSmallToe			LHeel			Neck			Head			Nose			RShoulder			RElbow			RWrist			RThumb			RIndex			RPinky			LShoulder			LElbow			LWrist			LThumb			LIndex			LPinky			
		X1	Y1	Z1	X2	Y2	Z2	X3	Y3	Z3	X4	Y4	Z4	X5	Y5	Z5	X6	Y6	Z6	X7	Y7	Z7	X8	Y8	Z8	X9	Y9	Z9	X10	Y10	Z10	X11	Y11	Z11	X12	Y12	Z12	X13	Y13	Z13	X14	Y14	Z14	X15	Y15	Z15	X16	Y16	Z16	X17	Y17	Z17	X18	Y18	Z18	X19	Y19	Z19	X20	Y20	Z20	X21	Y21	Z21	X22	Y22	Z22	X23	Y23	Z23	X24	Y24	Z24	X25	Y25	Z25	X26	Y26	Z26	X27	Y27	Z27	
36	0.6	0.3482897357589233	0.4434539249211493	1.0540843841556653	0.3279996229495699	0.4585627964131864	1.4984333617888086	0.31411186581876754	0.486053881430377	1.908540497145812	0.3056510210968083	0.3203124668492802	1.9045284512137939	0.36442986751132295	0.3538582294103134	1.9194020550086814	0.2954404253172933	0.5726621186489519	2.001046373218143	0.1555513383457597	0.47799882642702396	1.0739723462172321	0.13827553025924613	0.500145202999966	1.4996402132127986	0.13561813753223553	0.5068468683263478	1.9340014784767845	0.1428330769040861	0.3115910375988548	1.9016182182617176	0.0886454041889539	0.3783686337915962	1.9349984770571211	0.14697343929626386	0.5463123047439679	1.9871002120165289	0.22301678577178807	0.4406594830538602	0.526750755589878	0.21958172491039	0.39620363771227696	0.2977358357918798	0.2082764802743042	0.3483277754818087	0.40285614963428096	0.3696144657691799	0.4436709590687585	0.6059657696724452	0.41594612356400357	0.44764137052496655	0.8798764274353567	0.31101940594501065	0.29703622590700424	1.0285450532481475	0.21261792091294282	0.2645148707240113	1.0793742155822779	0.21709239394231983	0.26847129119642954	1.108900806882934	0.2520857218374049	0.31435897955259223	1.1516611898879352	0.07526257899012977	0.4382668776800993	0.6229705533124901	0.059617640771952425	0.4352296001228161	0.8766930150206858	0.1644850135486534	0.3165347881887679	1.0320305357112434	0.24329081186197984	0.28571650092517753	1.0842391811327818	0.2547236198468705	0.27592461311752225	1.1111775070321137	0.22301639967748355	0.298543185453759	1.1204389890603268
37	0.6166666666666667	0.34885485242773806	0.4439163250914284	1.0555190063190425	0.3283264157466527	0.4585574971599918	1.4988787883238475	0.3140890862238872	0.48597642588895185	1.9086846257896384	0.30619672523725255	0.32022259392901775	1.9040165022047022	0.363397954713408	0.3570257559516851	1.9217857552967679	0.295352894241417	0.5721962616223518	2.000541586780007	0.155653006036506	0.47869557222446796	1.0746550115051985	0.1381815878552759	0.5001722762969432	1.500200521508179	0.1368279602562551	0.507569976669798	1.9343323094723763	0.1428354406729278	0.3116742520442379	1.9015789949512265	0.08886345415013495	0.3797288792327083	1.935840270846638	0.1469538960600134	0.5464072737960735	1.9871662500154716	0.22299678193965797	0.44056459669209913	0.5267298009801744	0.21963739532574167	0.396499849281812	0.2976856537111337	0.20735615416357253	0.3478150760883466	0.40283241229392297	0.36962318036376257	0.4436477291830473	0.6059880823017852	0.41615292377123914	0.44883599611404246	0.8801521468707001	0.3130309437241593	0.2966465145512797	1.028374386091697	0.21885768299054814	0.2714380391661652	1.0817944159405486	0.21988077417156393	0.274202693440983	1.1135898796824468	0.25200194055279296	0.3147507824946295	1.1511864189052636	0.07536788921671878	0.43807881292564854	0.6228810009861092	0.05757660783344858	0.4384272997138411	0.8754971669639511	0.15639204650116398	0.32015933419909737	1.0274900710067931	0.24015120036720938	0.28247168789180993	1.0803433185260944	0.2522068113120265	0.27583149384421346	1.1070477284066502	0.22338264627224041	0.3024907294993259	1.1208318853374617
38	0.6333333333333333	0.34909515660657175	0.44437163688093784	1.055827840956458	0.32852635915397754	0.4585096369939043	1.5002166510585455	0.3137556743918947	0.48597467136080646	1.9082525495062446	0.3069035764953564	0.3180663403145497	1.9026243899824327	0.3633103671048648	0.3582630370501851	1.9227376681380166	0.2950439434354909	0.571653551091916	2.0003679769386133	0.15569282561882583	0.4793127860915104	1.0746469650766743	0.13831718661318484	0.5004970867468689	1.501494747876756	0.13733919800900915	0.5078890710160073	1.9344120562924352	0.14283353783593802	0.31171168582237013	1.9014921945224026	0.089460495594452	0.3830106107117935	1.9379917775983189	0.1469179928627998	0.5464458940344437	1.98716965186989	0.22309673265160923	0.44054943607932856	0.5267127832460766	0.2196521302243238	0.3966728959870906	0.2976261334103772	0.20704837117421873	0.34779973335212366	0.4028972550724662	0.36965090787192234	0.4436101942574139	0.605906551355758	0.4171652258692894	0.45156022984618227	0.8806768601580398	0.31609083257617165	0.29698463330518654	1.0285398355169892	0.22445332914048982	0.2656430122942818	1.0814076716121503	0.22225478435657647	0.27549281059514447	1.115168882875706	0.2541846567258493	0.3119556579406504	1.1498334397667307	0.07552284473589893	0.43782202848748203	0.622522789548897	0.05560823315374873	0.43948772375073586	0.8736624816945064	0.15002622690790818	0.3215223863600566	1.0219773621005719	0.2371378498819533	0.2789993852551339	1.075308030717761	0.24839615324947736	0.27530421327119897	1.103024989520849	0.22346466599649234	0.3060761238019528	1.120052807652012
39	0.65	0.34907877587273684	0.4443846177140219	1.0546063050171364	0.3281251643260096	0.4581953684254252	1.501365530850022	0.31335863395076685	0.486017875493013	1.9069657847282449	0.30732038280640184	0.3163769543461063	1.9015945979093059	0.36350642376601766	0.35827295005313414	1.9227318410238532	0.2947293216520255	0.5711557986802451	2.0006244145230823	0.1555548634525812	0.4793990310239147	1.0740343329141078	0.13904120092452912	0.5012083426690526	1.5032499842335398	0.137380009839583	0.5079294648571775	1.9343726147947922	0.14285789552038408	0.311729316215959	1.901503288011485	0.09026105608053697	0.38744598257228696	1.9409325932831212	0.14687986526236496	0.5464422663070068	1.987138426730802	0.22315325356546112	0.44055561381461344	0.5267098559828445	0.2196164031110827	0.3967030619954008	0.29756336863532906	0.20704925286382975	0.34787204819167866	0.4032561197286025	0.3696801619236024	0.4435150950089448	0.6054369774744222	0.41902877573340847	0.45493111490210436	0.8811356573326513	0.3191326698548712	0.29908561149669965	1.0291057247012112	0.22948738218321973	0.24876713985273272	1.0767314732559599	0.22539538610902424	0.27065833237216524	1.1133399997029458	0.25862840613216337	0.3042508260584008	1.1468623901448156	0.07555405442279042	0.437855582607297	0.6220343844013526	0.0534251907849837	0.4404200810972546	0.8726292069502486	0.14526613915098296	0.3210735073792139	1.0167047260015285	0.23497758441027786	0.27573091980502806	1.0702784358522845	0.24396485513140098	0.2745198141952213	1.0987081305457027	0.22277676777028627	0.3080729963355064	1.1176176046392587
40	0.6666666666666666	0.3487829707033913	0.44434337974131116	1.0522283593469293	0.32683001922125576	0.4573879928819078	1.501533203946039	0.31324472266074166	0.4860617312851946	1.9061717330472154	0.307414709336203	0.3158024947023679	1.9011752741487422	0.3636541534381126	0.3579825087796966	1.9224451168396866	0.29460233283814585	0.5709114994530522	2.001403609606193	0.15530374833395974	0.4788089725336482	1.072857701510201	0.14032764919181387	0.5019930071109365	1.5047347052479416	0.13717687909618065	0.5078208280626939	1.9343458561408098	0.14295908633628396	0.3118347505648604	1.901990817196363	0.09090483549563774	0.3909668042115135	1.9432605688222977	0.1468557330294852	0.546459238589363	1.9871222548751268	0.22314353851265412	0.44055943045655777	0.5267256774792257	0.21955953605433193	0.3966799262544386	0.2975115867752244	0.2070941683438816	0.3479051272775354	0.40416122049055014	0.3696622650189783	0.4433133391946892	0.6043387281651261	0.421424004088722	0.45708139982389695	0.880587063913439	0.3215955901501938	0.3026653032262066	1.029831264673725	0.23382216437962366	0.23116625651996958	1.0698258933091493	0.2301263471559239	0.26181517228429163	1.1096213664576473	0.2653620296793378	0.290384017123329	1.1413820190765867	0.07507726227736203	0.43902450946018706	0.6220080518008462	0.0503751723466106	0.44333140306381846	0.8726955030593087	0.1417485834880998	0.31877812028724817	1.0121033805884476	0.2332619498297858	0.2732790996336278	1.0669758669729599	0.23992303022727954	0.2740497173032072	1.0943191928957747	0.22103998209715503	0.3088818923120125	1.1144576912464828
41	0.6833333333333333	0.34811676708813005	0.44555133154877735	1.0500224396829654	0.32517092132690395	0.45619689484357384	1.5010894517103912	0.3134342194959492	0.4860972550112954	1.9068151947235021	0.3073858517814614	0.3158339692912002	1.9010956204507612	0.36371458641843707	0.35779745986402345	1.9222197297918089	0.29467225758501114	0.5709812927948278	2.002444411852255	0.15483628675254923	0.47767355765472375	1.0710451164835921	0.14163168408701296	0.5022991541478853	1.5056894210332548	0.13668793969734128	0.5075588120482613	1.934357913294519	0.14317180153849293	0.3121168858652126	1.9032524601570313	0.09129479369087959	0.3918644832690942	1.9438203937170808	0.1468553052827492	0.5465613664743959	1.9871598522466054	0.22310239909615492	0.4405713676350445	0.5267553991072682	0.21950479790114796	0.39664067119251584	0.2974864537267528	0.2071120306299872	0.3479171854095871	0.4056427931598433	0.3694874554757942	0.4430112246156084	0.6029188580004695	0.42387052866107167	0.45758583528264407	0.8783080225655655	0.3239324231790496	0.30631735246387204	1.030174661963123	0.2371103223654168	0.22067117216500914	1.0643995683261362	0.23648719333926757	0.2518200179474598	1.105087403954032	0.27369417495891246	0.27209779159827174	1.1335106286432532	0.0738230509213641	0.4419681335600907	0.6228636804342984	0.04591456819272876	0.4479297692470164	0.8727040018217862	0.13934348985588166	0.3157334082155555	1.0079355739462001	0.2314715532568285	0.2715961630873966	1.0658841592968196	0.23652344634046918	0.2743923280100738	1.0905277360010648	0.21838400103053976	0.3097708067976541	1.1118536568903112
